#Comment line ignore any data following # character 
#Hierarchical Translation and Rotation (.htr) file 
[Header]	
#Header keywords are followed by a single value 
FileType HTR		#Single word string
DataType HTRS		#Translation followed by rotation and scale data
FileVersion 1		#integer
NumSegments 84		#integer
NumFrames 2		#integer
DataFrameRate 30		#integer, data frame rate in this file
EulerRotationOrder ZYX
CalibrationUnits mm
RotationUnits Degrees
GlobalAxisofGravity Y
BoneLengthAxis Y
ScaleFactor 1.00
[SegmentNames&Hierarchy]
#CHILD	PARENT
MASTER GLOBAL
root MASTER
chest root
L_mid_tent01 root
R_mid_tent01 root
spine01 root
Bip01_Neck chest
L_humerus chest
R_humerus chest
weapon_bone chest
Bip01_Head Bip01_Neck
eye_left_bone Bip01_Head
eye_right_bone Bip01_Head
L_forearm L_humerus
L_front_hand L_forearm
L_weapon_bone L_forearm
L_front_hand01_01 L_front_hand
L_front_hand02_01 L_front_hand
L_front_hand03_01 L_front_hand
L_front_hand01_02 L_front_hand01_01
L_front_hand02_02 L_front_hand02_01
L_front_hand03_02 L_front_hand03_01
R_forearm R_humerus
R_front_hand R_forearm
R_weapon_bone R_forearm
R_front_hand01_01 R_front_hand
R_front_hand02_01 R_front_hand
R_front_hand03_01 R_front_hand
R_front_hand01_02 R_front_hand01_01
R_front_hand02_02 R_front_hand02_01
R_front_hand03_02 R_front_hand03_01
null_rope01_connect L_mid_tent01
Rope1_Seg01 null_rope01_connect
Rope1_Seg02 Rope1_Seg01
Rope1_Seg03 Rope1_Seg02
Rope1_Seg04 Rope1_Seg03
Rope1_Seg05 Rope1_Seg04
Rope1_Seg06 Rope1_Seg05
Rope1_Seg07 Rope1_Seg06
Rope1_Seg09 Rope1_Seg07
L_mid_hand01 Rope1_Seg09
L_mid_hand02 Rope1_Seg09
L_mid_hand03 Rope1_Seg09
null_rope02_connect R_mid_tent01
Rope2_Seg01 null_rope02_connect
Rope2_Seg02 Rope2_Seg01
Rope2_Seg03 Rope2_Seg02
Rope2_Seg04 Rope2_Seg03
Rope2_Seg05 Rope2_Seg04
Rope2_Seg06 Rope2_Seg05
Rope2_Seg07 Rope2_Seg06
Rope2_Seg09 Rope2_Seg07
R_mid_hand01 Rope2_Seg09
R_mid_hand02 Rope2_Seg09
R_mid_hand03 Rope2_Seg09
spine02 spine01
spine03 spine02
pelvis spine03
null_rope03_connect pelvis
null_rope04_connect pelvis
Rope3_Seg01 null_rope03_connect
Rope3_Seg02 Rope3_Seg01
Rope3_Seg03 Rope3_Seg02
Rope3_Seg04 Rope3_Seg03
Rope3_Seg05 Rope3_Seg04
Rope3_Seg06 Rope3_Seg05
Rope3_Seg07 Rope3_Seg06
Rope3_Seg08 Rope3_Seg07
Rope3_Seg09 Rope3_Seg08
R_rear_hand01 Rope3_Seg09
R_rear_hand02 Rope3_Seg09
R_rear_hand03 Rope3_Seg09
Rope4_Seg01 null_rope04_connect
Rope4_Seg02 Rope4_Seg01
Rope4_Seg03 Rope4_Seg02
Rope4_Seg04 Rope4_Seg03
Rope4_Seg05 Rope4_Seg04
Rope4_Seg06 Rope4_Seg05
Rope4_Seg07 Rope4_Seg06
Rope4_Seg08 Rope4_Seg07
Rope4_Seg09 Rope4_Seg08
L_rear_hand01 Rope4_Seg09
L_rear_hand02 Rope4_Seg09
L_rear_hand03 Rope4_Seg09
[BasePosition]
#SegmentName Tx, Ty, Tz, Rx, Ry, Rz, BoneLength
MASTER 0.000000 0.000000 0.000000 -90.000000 0.000000 0.000000 10.000000 
root 0.000000 0.000000 0.000000 0.000000 0.000000 0.000000 10.000000 
chest 0.000000 0.000000 0.000000 0.000000 0.000000 0.000000 10.000000 
L_mid_tent01 0.000000 0.000000 0.000000 0.000000 0.000000 0.000000 10.000000 
R_mid_tent01 0.000000 0.000000 0.000000 0.000000 0.000000 0.000000 10.000000 
spine01 0.000000 0.000000 0.000000 0.000000 0.000000 0.000000 10.000000 
Bip01_Neck 0.000000 0.000000 0.000000 0.000000 0.000000 0.000000 10.000000 
L_humerus 0.000000 0.000000 0.000000 0.000000 0.000000 0.000000 10.000000 
R_humerus 0.000000 0.000000 0.000000 0.000000 0.000000 0.000000 10.000000 
weapon_bone 0.000000 0.000000 0.000000 0.000000 0.000000 0.000000 10.000000 
Bip01_Head 0.000000 0.000000 0.000000 0.000000 0.000000 0.000000 10.000000 
eye_left_bone 0.000000 0.000000 0.000000 0.000000 0.000000 0.000000 10.000000 
eye_right_bone 0.000000 0.000000 0.000000 0.000000 0.000000 0.000000 10.000000 
L_forearm 0.000000 0.000000 0.000000 0.000000 0.000000 0.000000 10.000000 
L_front_hand 0.000000 0.000000 0.000000 0.000000 0.000000 0.000000 10.000000 
L_weapon_bone 0.000000 0.000000 0.000000 0.000000 0.000000 0.000000 10.000000 
L_front_hand01_01 0.000000 0.000000 0.000000 0.000000 0.000000 0.000000 10.000000 
L_front_hand02_01 0.000000 0.000000 0.000000 0.000000 0.000000 0.000000 10.000000 
L_front_hand03_01 0.000000 0.000000 0.000000 0.000000 0.000000 0.000000 10.000000 
L_front_hand01_02 0.000000 0.000000 0.000000 0.000000 0.000000 0.000000 10.000000 
L_front_hand02_02 0.000000 0.000000 0.000000 0.000000 0.000000 0.000000 10.000000 
L_front_hand03_02 0.000000 0.000000 0.000000 0.000000 0.000000 0.000000 10.000000 
R_forearm 0.000000 0.000000 0.000000 0.000000 0.000000 0.000000 10.000000 
R_front_hand 0.000000 0.000000 0.000000 0.000000 0.000000 0.000000 10.000000 
R_weapon_bone 0.000000 0.000000 0.000000 0.000000 0.000000 0.000000 10.000000 
R_front_hand01_01 0.000000 0.000000 0.000000 0.000000 0.000000 0.000000 10.000000 
R_front_hand02_01 0.000000 0.000000 0.000000 0.000000 0.000000 0.000000 10.000000 
R_front_hand03_01 0.000000 0.000000 0.000000 0.000000 0.000000 0.000000 10.000000 
R_front_hand01_02 0.000000 0.000000 0.000000 0.000000 0.000000 0.000000 10.000000 
R_front_hand02_02 0.000000 0.000000 0.000000 0.000000 0.000000 0.000000 10.000000 
R_front_hand03_02 0.000000 0.000000 0.000000 0.000000 0.000000 0.000000 10.000000 
null_rope01_connect 0.000000 0.000000 0.000000 0.000000 0.000000 0.000000 10.000000 
Rope1_Seg01 0.000000 0.000000 0.000000 0.000000 0.000000 0.000000 10.000000 
Rope1_Seg02 0.000000 0.000000 0.000000 0.000000 0.000000 0.000000 10.000000 
Rope1_Seg03 0.000000 0.000000 0.000000 0.000000 0.000000 0.000000 10.000000 
Rope1_Seg04 0.000000 0.000000 0.000000 0.000000 0.000000 0.000000 10.000000 
Rope1_Seg05 0.000000 0.000000 0.000000 0.000000 0.000000 0.000000 10.000000 
Rope1_Seg06 0.000000 0.000000 0.000000 0.000000 0.000000 0.000000 10.000000 
Rope1_Seg07 0.000000 0.000000 0.000000 0.000000 0.000000 0.000000 10.000000 
Rope1_Seg09 0.000000 0.000000 0.000000 0.000000 0.000000 0.000000 10.000000 
L_mid_hand01 0.000000 0.000000 0.000000 0.000000 0.000000 0.000000 10.000000 
L_mid_hand02 0.000000 0.000000 0.000000 0.000000 0.000000 0.000000 10.000000 
L_mid_hand03 0.000000 0.000000 0.000000 0.000000 0.000000 0.000000 10.000000 
null_rope02_connect 0.000000 0.000000 0.000000 0.000000 0.000000 0.000000 10.000000 
Rope2_Seg01 0.000000 0.000000 0.000000 0.000000 0.000000 0.000000 10.000000 
Rope2_Seg02 0.000000 0.000000 0.000000 0.000000 0.000000 0.000000 10.000000 
Rope2_Seg03 0.000000 0.000000 0.000000 0.000000 0.000000 0.000000 10.000000 
Rope2_Seg04 0.000000 0.000000 0.000000 0.000000 0.000000 0.000000 10.000000 
Rope2_Seg05 0.000000 0.000000 0.000000 0.000000 0.000000 0.000000 10.000000 
Rope2_Seg06 0.000000 0.000000 0.000000 0.000000 0.000000 0.000000 10.000000 
Rope2_Seg07 0.000000 0.000000 0.000000 0.000000 0.000000 0.000000 10.000000 
Rope2_Seg09 0.000000 0.000000 0.000000 0.000000 0.000000 0.000000 10.000000 
R_mid_hand01 0.000000 0.000000 0.000000 0.000000 0.000000 0.000000 10.000000 
R_mid_hand02 0.000000 0.000000 0.000000 0.000000 0.000000 0.000000 10.000000 
R_mid_hand03 0.000000 0.000000 0.000000 0.000000 0.000000 0.000000 10.000000 
spine02 0.000000 0.000000 0.000000 0.000000 0.000000 0.000000 10.000000 
spine03 0.000000 0.000000 0.000000 0.000000 0.000000 0.000000 10.000000 
pelvis 0.000000 0.000000 0.000000 0.000000 0.000000 0.000000 10.000000 
null_rope03_connect 0.000000 0.000000 0.000000 0.000000 0.000000 0.000000 10.000000 
null_rope04_connect 0.000000 0.000000 0.000000 0.000000 0.000000 0.000000 10.000000 
Rope3_Seg01 0.000000 0.000000 0.000000 0.000000 0.000000 0.000000 10.000000 
Rope3_Seg02 0.000000 0.000000 0.000000 0.000000 0.000000 0.000000 10.000000 
Rope3_Seg03 0.000000 0.000000 0.000000 0.000000 0.000000 0.000000 10.000000 
Rope3_Seg04 0.000000 0.000000 0.000000 0.000000 0.000000 0.000000 10.000000 
Rope3_Seg05 0.000000 0.000000 0.000000 0.000000 0.000000 0.000000 10.000000 
Rope3_Seg06 0.000000 0.000000 0.000000 0.000000 0.000000 0.000000 10.000000 
Rope3_Seg07 0.000000 0.000000 0.000000 0.000000 0.000000 0.000000 10.000000 
Rope3_Seg08 0.000000 0.000000 0.000000 0.000000 0.000000 0.000000 10.000000 
Rope3_Seg09 0.000000 0.000000 0.000000 0.000000 0.000000 0.000000 10.000000 
R_rear_hand01 0.000000 0.000000 0.000000 0.000000 0.000000 0.000000 10.000000 
R_rear_hand02 0.000000 0.000000 0.000000 0.000000 0.000000 0.000000 10.000000 
R_rear_hand03 0.000000 0.000000 0.000000 0.000000 0.000000 0.000000 10.000000 
Rope4_Seg01 0.000000 0.000000 0.000000 0.000000 0.000000 0.000000 10.000000 
Rope4_Seg02 0.000000 0.000000 0.000000 0.000000 0.000000 0.000000 10.000000 
Rope4_Seg03 0.000000 0.000000 0.000000 0.000000 0.000000 0.000000 10.000000 
Rope4_Seg04 0.000000 0.000000 0.000000 0.000000 0.000000 0.000000 10.000000 
Rope4_Seg05 0.000000 0.000000 0.000000 0.000000 0.000000 0.000000 10.000000 
Rope4_Seg06 0.000000 0.000000 0.000000 0.000000 0.000000 0.000000 10.000000 
Rope4_Seg07 0.000000 0.000000 0.000000 0.000000 0.000000 0.000000 10.000000 
Rope4_Seg08 0.000000 0.000000 0.000000 0.000000 0.000000 0.000000 10.000000 
Rope4_Seg09 0.000000 0.000000 0.000000 0.000000 0.000000 0.000000 10.000000 
L_rear_hand01 0.000000 0.000000 0.000000 0.000000 0.000000 0.000000 10.000000 
L_rear_hand02 0.000000 0.000000 0.000000 0.000000 0.000000 0.000000 10.000000 
L_rear_hand03 0.000000 0.000000 0.000000 0.000000 0.000000 0.000000 10.000000 
#Beginning of Data. Separated by tabs
#Fr	Tx	Ty	Tz	Rx	Ry	Rz	SF
[MASTER]
9 0.000000 0.000000 0.000000 0.001660 0.001660 0.001660 0.000000
10 0.000000 0.000000 0.000000 0.001660 0.001660 0.001660 0.000000
[root]
9 -22.314539 -23.217167 1471.020264 -86.235123 -12.652279 -92.595726 1471.372559
10 -23.598555 -27.659784 1475.470947 -85.312569 -12.970654 -93.123047 1475.918823
[chest]
9 -84.512650 -34.090519 0.000000 -1.910793 1.183406 -174.855362 91.129311
10 -84.512650 -34.090519 0.000000 -1.957445 1.321863 -174.704590 91.129311
[L_mid_tent01]
9 27.299135 22.179203 -249.918716 5.646430 6.709911 86.145538 252.381714
10 27.299139 22.179209 -249.918716 5.381351 7.399776 85.057083 252.381714
[R_mid_tent01]
9 23.228794 24.509907 226.238495 163.435364 -3.724844 78.861412 228.744751
10 23.228794 24.509907 226.238495 163.671539 -2.832508 77.829338 228.744751
[spine01]
9 -0.361383 -0.195265 0.000000 -0.000001 -0.000007 22.052340 0.410763
10 -0.361383 -0.195265 0.000000 -0.000001 -0.000007 22.052340 0.410763
[Bip01_Neck]
9 165.484543 71.581718 0.000119 176.643677 -1.657967 43.431911 180.302734
10 165.484543 71.581718 0.000119 176.643677 -1.657967 43.431911 180.302734
[L_humerus]
9 -13.983130 -135.272980 -120.471481 178.196472 -5.554010 -157.703827 181.680161
10 -13.983130 -135.272980 -120.471481 177.161346 -4.545991 -156.046143 181.680161
[R_humerus]
9 -13.983309 -135.273102 125.287651 -179.963608 4.711012 -153.348068 184.909012
10 -13.983309 -135.273102 125.287651 -179.073654 3.813794 -151.644577 184.909012
[weapon_bone]
9 235.964890 -300.705902 0.000000 0.000000 -89.951546 -128.212341 382.234833
10 235.964890 -300.705902 0.000000 0.000000 -89.951546 -128.212341 382.234833
[Bip01_Head]
9 213.519241 185.507095 14.467315 4.980257 8.512089 -43.811722 283.218384
10 213.553452 185.411835 15.697122 4.978127 7.737782 -43.828751 283.247284
[eye_left_bone]
9 -24.626970 125.451866 -64.772606 0.000000 -90.000000 -99.840431 143.318359
10 -24.626970 125.451866 -64.772606 0.000000 -90.000000 -99.840431 143.318359
[eye_right_bone]
9 -24.626970 125.451866 64.327362 0.000000 -89.965736 80.156380 143.117676
10 -24.626970 125.451866 64.327362 0.000000 -89.965736 80.156380 143.117676
[L_forearm]
9 322.776093 0.000000 -0.000119 0.000396 -0.002314 -109.419975 322.776093
10 322.776093 0.000000 -0.000119 0.000396 -0.002314 -109.419975 322.776093
[L_front_hand]
9 241.149185 -0.042021 -3.300071 -178.667953 -1.835447 -27.422350 241.171753
10 241.149185 -0.042021 -3.300071 -178.667953 -1.835447 -27.422350 241.171753
[L_weapon_bone]
9 156.183838 0.000000 0.000000 0.000014 0.000007 0.000001 156.183838
10 156.183838 0.000000 0.000000 0.000014 0.000007 0.000001 156.183838
[L_front_hand01_01]
9 86.095154 20.947098 -0.655860 -0.306535 -0.513312 68.646957 88.609184
10 86.095154 20.947098 -0.655860 -0.291918 -0.522545 67.227623 88.609184
[L_front_hand02_01]
9 86.935165 -11.437475 24.513514 145.004044 -56.473930 -50.323570 91.046425
10 86.935165 -11.437475 24.513514 143.299133 -55.645813 -48.269917 91.046425
[L_front_hand03_01]
9 86.637497 -14.123976 -20.424902 -145.151367 54.687611 -52.198399 90.126129
10 86.637497 -14.123976 -20.424902 -143.556335 53.862476 -50.232788 90.126129
[L_front_hand01_02]
9 71.020905 -0.000179 0.000030 0.000316 -0.002326 -105.490036 71.020905
10 71.020905 -0.000179 0.000030 0.000316 -0.002326 -105.466431 71.020905
[L_front_hand02_02]
9 71.020927 -0.000119 0.000060 0.000316 -0.002326 -105.490036 71.020927
10 71.020927 -0.000119 0.000060 0.000316 -0.002326 -105.466431 71.020927
[L_front_hand03_02]
9 71.020905 -0.000060 0.000060 0.000316 -0.002326 -105.490036 71.020905
10 71.020905 -0.000060 0.000060 0.000316 -0.002326 -105.466431 71.020905
[R_forearm]
9 322.776428 -0.000060 0.000030 0.202103 0.065158 -108.062805 322.776428
10 322.776428 -0.000060 0.000030 0.202103 0.065158 -108.062805 322.776428
[R_front_hand]
9 238.847015 -0.006795 2.210259 -2.635298 -10.645461 -26.312506 238.857239
10 238.847015 -0.006795 2.210259 -2.635298 -10.645461 -26.312506 238.857239
[R_weapon_bone]
9 155.664093 0.002503 -0.000030 0.003487 0.001180 -90.988930 155.664078
10 155.664093 0.002503 -0.000030 0.003487 0.001180 -90.988930 155.664078
[R_front_hand01_01]
9 87.624611 14.231146 22.918642 -145.613235 -56.747219 51.157963 91.683487
10 87.624611 14.231146 22.918642 -143.671631 -55.829556 48.823868 91.683487
[R_front_hand02_01]
9 89.356956 14.367283 -19.491137 146.110458 55.128284 53.601921 92.579636
10 89.356956 14.367283 -19.491137 144.272369 54.223438 51.351048 92.579636
[R_front_hand03_01]
9 87.286232 -22.307278 -0.143439 0.113738 -0.439575 -69.369316 90.091743
10 87.286232 -22.307278 -0.143439 0.102142 -0.441771 -67.781387 90.091743
[R_front_hand01_02]
9 71.020905 0.000060 0.000119 0.002323 -0.000334 106.381714 71.020905
10 71.020905 0.000060 0.000119 0.002323 -0.000334 106.381714 71.020905
[R_front_hand02_02]
9 71.020844 -0.000030 -0.000119 0.002323 -0.000334 106.381714 71.020836
10 71.020844 -0.000030 -0.000119 0.002323 -0.000334 106.381714 71.020836
[R_front_hand03_02]
9 71.020905 0.000000 0.000030 0.002323 -0.000334 106.381714 71.020905
10 71.020905 0.000000 0.000030 0.002323 -0.000334 106.381714 71.020905
[null_rope01_connect]
9 328.732483 0.000000 -0.000238 -97.172348 -80.834854 113.783997 328.732483
10 328.732483 0.000000 -0.000238 -94.896339 -80.499969 112.892769 328.732483
[Rope1_Seg01]
9 0.000000 0.000000 0.000000 -48.860779 40.087692 -73.095009 0.000000
10 0.000000 0.000000 0.000000 -56.359253 46.138283 -74.237106 0.000000
[Rope1_Seg02]
9 139.999863 -0.000179 0.000000 -11.086500 8.589313 5.677534 139.999863
10 139.999863 -0.000179 0.000000 -5.986606 3.785580 4.393326 139.999863
[Rope1_Seg03]
9 139.999924 0.000060 -0.000060 -13.185246 9.192520 9.179285 139.999924
10 139.999924 0.000060 -0.000060 -7.327842 4.446487 6.450754 139.999924
[Rope1_Seg04]
9 139.999924 -0.000060 -0.000119 -14.025856 9.671906 14.918725 139.999924
10 139.999924 -0.000060 -0.000119 -10.242075 7.428243 9.948825 139.999924
[Rope1_Seg05]
9 139.999832 0.000119 -0.000060 -5.263458 1.999734 9.194366 139.999832
10 139.999832 0.000119 -0.000060 -8.031410 3.993451 13.620868 139.999832
[Rope1_Seg06]
9 139.999954 0.000119 -0.000060 0.918553 -2.101842 0.172799 139.999954
10 139.999954 0.000119 -0.000060 0.712042 -9.483700 6.710793 139.999954
[Rope1_Seg07]
9 139.999985 0.000060 0.000000 -0.119164 -1.198608 1.620294 139.999985
10 139.999985 0.000060 0.000000 0.368251 -7.210505 4.727206 139.999985
[Rope1_Seg09]
9 121.602913 0.000119 -0.000089 -89.793175 -1.359789 0.847147 121.602913
10 121.602913 0.000119 -0.000089 -89.793175 -1.359789 0.847147 121.602913
[L_mid_hand01]
9 103.859421 1.038730 8.195221 109.056190 -40.604698 -13.201404 104.187431
10 103.859421 1.038730 8.195221 109.301483 -41.408253 -13.576799 104.187431
[L_mid_hand02]
9 105.572853 -4.139662 -10.864139 -146.713593 31.476528 -37.902313 106.211075
10 105.572853 -4.139662 -10.864139 -147.153671 31.943630 -38.737034 106.211075
[L_mid_hand03]
9 104.641464 17.579376 -3.913581 -14.267232 12.322316 43.898403 106.179977
10 104.641464 17.579376 -3.913581 -14.087292 12.528420 44.741467 106.179977
[null_rope02_connect]
9 328.732849 0.000179 -0.000119 -90.738060 75.160057 64.360970 328.732849
10 328.732849 0.000179 -0.000119 -89.976982 76.132164 63.794399 328.732849
[Rope2_Seg01]
9 0.000095 0.000153 0.000034 119.050743 52.606602 -111.491783 0.000183
10 0.000095 0.000153 0.000038 129.173523 55.622292 -101.825195 0.000184
[Rope2_Seg02]
9 139.999741 -0.000060 -0.000119 6.236362 -2.063720 -11.015711 139.999756
10 139.999741 -0.000060 -0.000119 5.854815 -3.643992 -8.024150 139.999756
[Rope2_Seg03]
9 140.000107 0.000030 0.000000 7.963974 -3.710999 -12.472135 140.000107
10 140.000107 0.000030 0.000000 6.498113 -5.046829 -8.756785 140.000107
[Rope2_Seg04]
9 139.999802 0.000000 -0.000060 9.801673 -5.147864 -14.542280 139.999802
10 139.999802 0.000000 -0.000060 7.561184 -5.561405 -10.915952 139.999802
[Rope2_Seg05]
9 139.999985 -0.000060 0.000119 5.974548 -5.446244 -8.500246 139.999985
10 139.999985 -0.000060 0.000119 5.449182 -5.760155 -7.987468 139.999985
[Rope2_Seg06]
9 139.999893 -0.000030 -0.000119 2.443543 -5.956416 -2.656924 139.999893
10 139.999893 -0.000030 -0.000119 1.603719 -7.874714 -0.659049 139.999893
[Rope2_Seg07]
9 139.999893 0.000060 -0.000060 1.428949 -9.890386 -0.201397 139.999893
10 139.999893 0.000060 -0.000060 -0.910084 -14.974879 6.739552 139.999893
[Rope2_Seg09]
9 121.338966 0.000089 -0.000060 33.793236 -1.359788 -0.847141 121.338966
10 121.338966 0.000089 -0.000060 33.793236 -1.359788 -0.847141 121.338966
[R_mid_hand01]
9 104.680779 11.144459 -10.335981 -33.085686 36.191681 44.913227 105.778534
10 104.680779 11.144459 -10.335981 -34.826851 34.540035 41.908733 105.778534
[R_mid_hand02]
9 104.070427 2.443552 8.231699 67.611252 -49.370300 17.897308 104.424065
10 104.070427 2.443552 8.231699 68.824310 -46.622631 16.260359 104.424065
[R_mid_hand03]
9 106.028137 -11.221827 -5.996406 -171.571182 13.427422 -54.737041 106.788818
10 106.028137 -11.221827 -5.996406 -170.883774 12.973572 -51.735531 106.788818
[spine02]
9 129.756927 0.001550 0.000119 0.360061 -4.044797 -12.915058 129.756927
10 129.756927 0.001550 0.000119 0.360061 -4.044797 -12.915058 129.756927
[spine03]
9 78.614059 0.081618 -4.899013 1.896495 3.831288 16.473045 78.766594
10 78.614059 0.081635 -4.899013 1.896495 3.831288 16.473045 78.766594
[pelvis]
9 169.435242 0.051022 0.000000 -0.060465 -0.180225 14.087930 169.435257
10 169.435242 0.051022 0.000000 -0.060465 -0.180225 14.087930 169.435257
[null_rope03_connect]
9 -1.257226 -2.466202 137.391083 -19.276741 -84.908691 82.345215 137.418976
10 -1.257226 -2.466202 137.391083 -19.069857 -83.971657 82.507622 137.418976
[null_rope04_connect]
9 -1.259640 -2.480268 -137.844437 -19.276741 -84.908691 82.345215 137.872513
10 -1.259640 -2.480268 -137.844437 -19.069857 -83.971657 82.507622 137.872513
[Rope3_Seg01]
9 -0.000010 0.000000 -0.000136 -130.838852 33.870216 -73.152130 0.000136
10 -0.000010 0.000000 -0.000153 -128.567169 26.965591 -69.178131 0.000153
[Rope3_Seg02]
9 139.999924 -0.000119 0.000060 -2.161047 -12.245893 8.199834 139.999924
10 139.999924 -0.000119 0.000060 -0.701052 -9.768012 7.746336 139.999924
[Rope3_Seg03]
9 139.999924 -0.000119 0.000119 -2.696799 -14.832661 9.597013 139.999924
10 139.999924 -0.000119 0.000119 -1.476876 -12.441102 9.921237 139.999924
[Rope3_Seg04]
9 139.999924 0.000119 0.000000 -3.490717 -18.243412 11.800634 139.999924
10 139.999924 0.000119 0.000000 -2.750726 -15.845803 12.404016 139.999924
[Rope3_Seg05]
9 139.999924 -0.000238 0.000060 -0.331747 -5.444382 2.636907 139.999924
10 139.999924 -0.000238 0.000060 -1.057493 -8.541183 6.526644 139.999924
[Rope3_Seg06]
9 139.999893 -0.000119 -0.000060 0.499972 5.935763 -4.822224 139.999893
10 139.999893 -0.000119 -0.000060 0.251848 -1.253139 1.547050 139.999893
[Rope3_Seg07]
9 139.999771 0.000060 -0.000119 0.473712 5.931125 -5.046654 139.999771
10 139.999771 0.000060 -0.000119 0.284790 -1.501585 1.798394 139.999771
[Rope3_Seg08]
9 139.999985 -0.000060 0.000000 0.526587 2.695728 -2.717002 139.999985
10 139.999985 -0.000060 0.000000 0.159686 -2.465210 2.313500 139.999985
[Rope3_Seg09]
9 90.185997 -0.000179 -0.000060 89.793228 -1.359877 -0.847183 90.185997
10 90.185997 -0.000179 -0.000060 89.793228 -1.359877 -0.847183 90.185997
[R_rear_hand01]
9 103.366196 -6.073594 -10.757982 -166.818848 21.039259 -46.280426 104.101845
10 103.366196 -6.073594 -10.757982 -165.718872 20.328495 -43.170486 104.101845
[R_rear_hand02]
9 100.509819 12.039542 -7.992327 -28.339693 27.613865 43.697414 101.543350
10 100.509819 12.039542 -7.992327 -29.668055 26.160351 40.761948 101.543350
[R_rear_hand03]
9 101.539970 5.215704 5.435467 81.685280 -46.725750 9.939899 101.819031
10 101.539970 5.215704 5.435467 82.115250 -43.756126 9.334551 101.819031
[Rope4_Seg01]
9 0.000010 0.000038 -0.000114 82.398964 41.555916 -59.800255 0.000121
10 0.000010 0.000038 -0.000114 78.360474 42.574039 -65.684044 0.000121
[Rope4_Seg02]
9 139.999985 0.000060 0.000119 11.091886 -5.146990 -19.743290 139.999985
10 139.999985 0.000060 0.000119 9.490140 -4.507074 -19.069950 139.999985
[Rope4_Seg03]
9 139.999924 0.000000 -0.000238 5.688229 -8.157996 -17.796492 139.999924
10 139.999924 0.000000 -0.000238 4.085479 -6.053387 -14.109654 139.999924
[Rope4_Seg04]
9 139.999985 0.000000 0.000119 2.218933 -9.109366 -16.456465 139.999985
10 139.999985 0.000000 0.000119 1.530544 -7.237327 -10.686323 139.999985
[Rope4_Seg05]
9 139.999802 -0.000060 -0.000119 -0.150694 -3.323939 -5.671381 139.999802
10 139.999802 -0.000060 -0.000119 0.125395 -1.656532 -4.447908 139.999802
[Rope4_Seg06]
9 139.999924 0.000000 0.000060 0.155888 0.238461 0.437202 139.999924
10 139.999924 0.000000 0.000060 0.007155 2.381141 -1.878041 139.999924
[Rope4_Seg07]
9 139.999802 0.000000 0.000000 0.777910 3.944448 6.841908 139.999802
10 139.999802 0.000000 0.000000 0.286584 7.887627 -0.469366 139.999802
[Rope4_Seg08]
9 139.999924 0.000000 0.000119 -1.355254 2.886802 4.906734 139.999924
10 139.999924 0.000000 0.000119 -0.889861 6.287674 -1.800750 139.999924
[Rope4_Seg09]
9 90.185791 0.000060 0.000060 -135.617828 2.228885 0.850567 90.185791
10 90.185791 0.000060 0.000060 -135.617828 2.228885 0.850567 90.185791
[L_rear_hand01]
9 101.696655 -8.392275 -7.654577 -30.719042 -24.879360 141.681366 102.329041
10 101.696655 -8.392275 -7.654577 -29.575453 -26.270130 139.027267 102.329041
[L_rear_hand02]
9 102.726799 -1.568258 5.773216 82.428490 41.230476 171.131027 102.900848
10 102.726799 -1.568258 5.773216 82.088585 43.973633 170.624878 102.900848
[L_rear_hand03]
9 104.552910 9.721220 -10.420293 -164.822937 -19.676041 -139.457672 105.519653
10 104.552910 9.721220 -10.420293 -165.800003 -20.376877 -136.601624 105.519653
